<svg width="328" height="293" viewBox="0 0 328 293" fill="none" xmlns="http://www.w3.org/2000/svg">
<path d="M-5.64993 154.574C0.159122 156.1 6.30495 147.77 9.11491 143.605C10.2977 141.558 7.95231 140.021 5.62701 142.102C4.99078 142.88 5.10833 143.044 5.36147 143.416C5.58781 143.589 5.65071 143.879 5.36868 144.359C4.85052 145.038 3.8874 146.052 2.40663 147.481C0.971235 148.893 -0.518295 150.169 -2.06196 151.308C-3.5783 152.384 -4.68526 152.772 -5.38284 152.471C-6.14331 151.88 -6.1134 150.502 -5.26576 148.273C-4.41812 146.044 -3.19823 143.562 -1.62413 140.782C-0.0500249 138.001 1.47819 135.502 2.96051 133.283C4.42478 131.019 5.36161 129.543 5.83441 128.882C6.80732 127.497 8.36234 125.197 10.5809 122.055C12.8449 118.895 15.3996 115.409 18.3266 111.67C21.2809 107.868 24.2348 104.328 27.2061 101.097C30.2047 97.8028 32.9116 95.36 35.3539 93.7055C37.7962 92.051 39.6193 91.7464 40.8593 92.8822C42.1622 94.3083 42.7638 97.2745 42.6462 101.735C42.574 106.178 42.0558 111.481 41.1189 117.582C40.182 123.682 39.1271 129.882 37.9721 136.227C35.2203 152.297 32.5618 167.017 35.3789 168.419C36.3936 168.856 37.7187 168.224 39.3814 166.459C41.0622 164.74 42.8529 162.504 44.6899 159.724C46.545 156.989 48.264 154.309 49.7835 151.655C51.3209 149.047 52.4764 147.063 53.2498 145.705C53.3864 145.388 53.5591 145.161 53.6411 144.971C55.9159 140.913 58.3186 136.385 60.8945 131.366C64.3716 124.519 68.039 117.753 71.9147 111.114C75.7904 104.475 79.7635 99.0067 83.8522 94.7532C86.3053 92.201 88.13 91.1075 89.3895 91.4999C90.6311 91.8469 91.472 93.0363 91.9849 94.9868C92.4979 96.9372 92.8021 99.0233 93.0243 101.3C93.1403 102.252 93.2836 103.141 93.4089 103.984C93.5074 104.628 93.6326 105.472 93.7847 106.515C94.1508 109.417 94.7509 113.172 95.4762 117.77C96.247 122.351 97.226 127.059 98.3953 131.848C99.61 136.62 100.971 140.703 102.587 144.106C104.204 147.51 106.095 149.49 108.225 149.957C114.787 151.13 120.37 133.986 121.711 129.827C125.88 117.187 129.387 104.073 132.289 90.3604C135.19 76.6474 137.8 63.2604 139.993 50.1445C140.16 48.1863 137.876 47.7285 137.456 49.5773C135.263 62.4303 132.853 75.5276 130.133 88.9054C127.414 102.283 124.125 115.152 120.174 127.548C120.165 127.657 120.11 127.784 120.055 127.911C119.599 129.406 118.77 131.68 117.567 134.733C116.427 137.814 115.025 140.631 113.452 143.149C111.878 145.666 110.262 146.887 108.585 146.766C107.017 146.391 105.506 144.575 104.18 141.371C102.853 138.168 101.691 134.321 100.657 129.74C99.6416 125.205 98.7527 120.724 98.0088 116.343C97.2649 111.962 96.7189 108.343 96.3436 105.55C96.209 104.815 96.0925 104.126 96.0301 103.572C95.9316 102.928 95.8605 102.221 95.744 101.532C95.3604 98.3211 94.7768 95.4003 93.9932 92.7693C93.2095 90.1383 91.9159 88.6034 90.0851 88.228C88.2543 87.8526 85.5583 89.3978 81.9971 92.8635C77.645 97.3795 73.4538 103.093 69.4595 110.094C65.4472 117.049 61.6524 124.024 58.1387 131.044C55.9268 135.392 53.8788 139.359 51.8861 142.937C50.0387 146.351 47.9006 150.092 45.4716 154.158C43.088 158.206 40.7055 161.729 38.2786 164.744C34.7159 168.998 36.8784 157.523 39.5467 142.432C40.8475 135.661 42.0582 128.664 43.1513 121.503C44.2444 114.342 44.8735 107.996 44.9751 102.438C45.0767 96.8801 44.2771 93.1519 42.6216 91.2354C40.8294 89.6361 38.5356 89.55 35.7401 90.9771C32.9719 92.3408 29.948 94.6469 26.7137 97.8775C23.5248 101.09 20.3534 104.611 17.2357 108.531C14.1633 112.433 11.3997 116.054 9.00843 119.423C6.61712 122.791 4.88938 125.317 3.77983 127.02C3.70713 127.101 3.65248 127.228 3.55245 127.373C2.77959 128.468 1.58806 130.361 -0.112877 133.087C-1.78648 135.749 -3.41524 138.657 -4.95377 141.791C-6.51034 144.88 -7.49513 147.689 -7.85348 150.091C-8.21184 152.493 -7.50757 153.999 -5.64993 154.574ZM150.077 86.3333C148.38 86.9556 146.782 88.4848 145.371 90.8848C143.943 93.2395 142.896 95.7581 142.165 98.4133C141.434 101.069 141.276 103.181 141.735 104.732C142.574 106.974 143.878 107.874 145.665 107.478C147.452 107.083 149.431 105.981 151.493 104.162C153.555 102.344 155.472 100.425 157.153 98.4429C158.862 96.3971 160.043 94.8761 160.698 93.88C162.344 91.281 160.667 91.4227 159.894 92.5183C159.521 93.0344 158.639 94.1208 157.185 95.75C155.713 97.3338 154.06 98.9899 152.225 100.718C150.39 102.446 148.728 103.685 147.194 104.453C145.661 105.221 144.691 105.028 144.24 103.894C144.024 103.087 144.044 102.08 144.255 100.893C144.493 99.642 144.712 98.6088 144.977 97.8204C145.91 98.185 147.063 97.7792 148.325 96.5939C149.633 95.3906 150.77 93.8876 151.707 92.1486C152.644 90.4095 153.101 88.9144 152.985 87.6991C152.87 86.4839 151.9 86.0286 150.077 86.3333ZM150.162 89.1896C151.17 88.4209 151.242 88.6024 150.923 89.5176C150.513 90.4688 149.867 91.6191 148.94 92.9864C147.994 94.3083 147.14 95.3312 146.404 95.9917C143.525 98.3979 148.982 90.1847 150.162 89.1896ZM176.25 79.0768C176.332 78.8865 176.396 78.6509 176.478 78.4606C177.38 76.3679 177.626 75.7972 177.15 78.2988C176.36 83.4474 175.394 90.137 174.236 98.3224C173.436 103.843 172.801 108.457 172.268 112.137C172.047 113.959 173.435 113.617 173.673 112.366C173.755 112.176 174.14 109.974 174.865 105.849C175.635 101.707 176.579 96.5498 177.652 90.3954C178.77 84.2228 179.852 77.9595 180.898 71.6055C181.192 69.702 181.494 68.2156 181.832 67.0828C182.17 65.9501 182.708 64.5276 183.445 62.8154C185.339 58.8567 187.252 54.4176 189.103 49.4252C190.998 44.4148 192.541 39.177 193.794 33.7392C194.553 30.2317 194.794 27.9291 194.551 26.9222C193.376 24.7619 190.453 26.6602 189.406 28.6529C188.087 31.0169 186.675 34.2057 185.217 38.2015C183.758 42.1972 182.608 46.1755 181.829 50.1635C181.252 53.0729 180.528 57.197 179.656 62.5359C179.353 64.2853 179.051 65.7717 178.641 66.9859C178.23 68.2001 177.674 69.5772 176.928 71.1353C176.354 72.467 176.1 72.3577 175.493 72.284C175.194 72.1927 174.713 72.1736 174.051 72.2267C171.584 72.6299 169.278 74.2302 167.16 76.9643C165.042 79.6984 163.213 82.8955 161.746 86.4742C160.28 90.0528 159.294 93.3876 158.771 96.4332C158.248 99.4787 158.362 101.483 159.131 102.491C160.162 103.499 161.496 103.284 163.049 101.773C164.621 100.307 166.248 98.1888 167.958 95.3541C169.668 92.5195 171.234 89.5848 172.736 86.6228C174.219 83.6154 175.376 81.1061 176.25 79.0768ZM186.574 49.0122C186.273 49.7098 186.018 50.3893 185.735 51.1323C184.022 55.5446 182.373 59.7213 183.858 51.5638C184.361 48.9988 185.128 46.1714 186.078 43.0088C187.072 39.8282 188.012 37.0373 188.932 34.727C189.806 32.6977 192.883 26.6922 191.501 33.3901C190.266 38.8733 188.596 44.0565 186.574 49.0122ZM174.456 74.1679C175.39 74.0065 175.516 74.3241 175.143 75.1032C172.639 80.5657 170.172 85.5931 167.651 90.2215C165.13 94.8499 163.029 98.1552 161.338 100.246C160.193 101.595 160.159 100.453 160.417 98.4584C160.712 96.2919 161.569 93.4284 162.973 89.8224C164.404 86.153 166.115 82.7925 168.152 79.7227C170.171 76.6076 172.278 74.7711 174.456 74.1679ZM203.473 68.2498C203.555 68.0596 203.619 67.8239 203.701 67.6337C204.603 65.5409 204.849 64.9702 204.372 67.4718C203.582 72.6204 202.617 79.3101 201.459 87.4954C200.659 93.0158 200.024 97.6297 199.491 101.31C199.27 103.132 200.658 102.79 200.896 101.539C200.978 101.349 201.363 99.1466 202.088 95.0224C202.857 90.8803 203.801 85.7229 204.874 79.5684C205.993 73.3959 207.075 67.1326 208.121 60.7785C208.415 58.875 208.717 57.3886 209.055 56.2559C209.393 55.1231 209.93 53.7006 210.668 51.9884C212.562 48.0298 214.475 43.5906 216.325 38.5983C218.221 33.5879 219.764 28.3501 221.017 22.9122C221.776 19.4047 222.017 17.1022 221.774 16.0952C220.599 13.9349 217.676 15.8333 216.629 17.826C215.31 20.1899 213.898 23.3788 212.44 27.3745C210.981 31.3703 209.831 35.3485 209.052 39.3365C208.475 42.2459 207.751 46.3701 206.879 51.7089C206.576 53.4583 206.274 54.9447 205.864 56.1589C205.453 57.3731 204.897 58.7502 204.151 60.3083C203.577 61.64 203.323 61.5307 202.716 61.457C202.417 61.3657 201.936 61.3467 201.274 61.3998C198.807 61.8029 196.501 63.4033 194.383 66.1374C192.265 68.8715 190.436 72.0686 188.969 75.6472C187.502 79.2259 186.517 82.5607 185.994 85.6062C185.471 88.6517 185.585 90.6558 186.354 91.6638C187.385 92.6723 188.719 92.4573 190.272 90.9461C191.844 89.4803 193.471 87.3618 195.181 84.5272C196.891 81.6925 198.456 78.7578 199.958 75.7958C201.442 72.7885 202.599 70.2791 203.473 68.2498ZM213.796 38.1853C213.496 38.8828 213.241 39.5624 212.958 40.3053C211.245 44.7177 209.595 48.8944 211.08 40.7369C211.584 38.1718 212.351 35.3444 213.301 32.1818C214.295 29.0012 215.235 26.2104 216.155 23.9001C217.029 21.8707 220.106 15.8653 218.724 22.5632C217.489 28.0464 215.819 33.2295 213.796 38.1853ZM201.678 63.3409C202.613 63.1796 202.739 63.4972 202.366 64.2762C199.862 69.7388 197.394 74.7662 194.874 79.3945C192.353 84.0229 190.252 87.3283 188.561 89.4195C187.416 90.7682 187.382 89.6257 187.64 87.6314C187.934 85.4649 188.792 82.6014 190.196 78.9954C191.627 75.3261 193.338 71.9655 195.375 68.8957C197.394 65.7806 199.501 63.9441 201.678 63.3409ZM219.156 51.6606C218.412 51.9039 218.048 52.5742 218.273 53.2728C218.291 53.3182 218.191 53.463 217.982 53.5986C217.637 54.0513 216.992 54.6757 217.372 55.1026C219.145 56.9195 222.631 50.4887 219.156 51.6606ZM217.609 77.236C218.97 76.6947 221.059 75.3387 223.828 73.1862C226.643 71.0156 228.833 68.9889 230.351 67.124C231.205 65.8382 230.173 65.0926 229.437 66.016C229.191 66.3238 228.428 67.0477 227.075 68.2691C225.749 69.4271 224.223 70.6119 222.562 71.8508C220.9 73.0897 219.475 73.8667 218.241 74.1998C217.053 74.5148 216.482 74.0059 216.512 72.6277C216.651 70.9959 216.982 68.9202 217.504 66.4005C218.053 63.8175 218.601 61.4974 219.086 59.4129C219.095 59.3041 219.15 59.1773 219.177 59.1138C219.369 58.407 219.498 57.6728 218.819 57.1546C217.497 56.209 214.841 60.3656 216.108 61.4381C216.053 61.5649 216.017 61.7371 215.971 62.0181C215.057 65.5343 211.711 79.5819 217.609 77.236ZM227.928 72.6593C228.07 74.0741 229.366 74.2942 230.375 73.2626C231.665 71.7509 233.331 68.6713 234.996 65.3288C236.881 61.479 238.728 58.0643 239.945 57.4229C240.565 60.1715 241.531 61.9415 242.827 62.6876C244.104 63.3883 245.792 62.3489 247.829 59.5421C248.429 58.6728 247.797 57.3477 246.879 58.6063C243.851 63.016 243.165 61.029 242.517 58.6067C242.238 57.5091 241.877 56.6016 241.417 55.8391C240.938 55.0312 240.14 54.8754 239.033 55.2632C238.371 55.5792 237.443 56.6836 236.261 58.4675C235.124 60.2333 233.978 62.108 232.868 64.0734C231.803 66.0207 231.021 67.488 230.565 68.4573C230.869 66.1821 231.264 63.6078 231.705 60.7525C232.191 57.8791 232.586 55.3049 232.999 53.0389C233.027 52.7125 233.009 52.4042 232.901 52.132L232.865 52.0412L232.811 51.9051C232.512 51.5509 232.113 51.3416 231.606 51.3859C231.343 51.3854 231.116 51.4756 230.88 51.6746L230.807 51.7561C230.48 51.9912 230.071 52.6795 229.642 53.8483C229.442 54.401 229.676 54.9908 230.238 55.3456C230.091 56.2973 229.889 57.3759 229.669 58.6721C229.311 61.0742 228.925 63.5397 228.548 66.1594C228.171 68.779 227.922 70.9275 227.928 72.6593ZM267.904 40.7854C266.595 42.7776 265.348 44.7971 264.12 46.862C260.263 53.283 256.614 59.8314 253.11 66.4798C252.682 67.3857 248.596 75.2116 247.68 70.5312C247.151 67.7465 247.366 64.4556 248.325 60.6583C249.285 56.861 250.688 53.2551 252.617 49.9131C254.528 46.5257 256.691 44.0365 259.169 42.4728C260.704 41.4422 261.283 41.8422 261.645 42.2238C261.953 42.4692 262.225 42.6239 262.76 42.2532C265.529 40.6265 263.675 37.9481 260.854 38.6498C257.361 39.7763 254.382 42.3273 251.854 46.2756C249.325 50.224 247.485 54.5816 246.315 59.3033C245.145 64.025 244.865 68.0775 245.493 71.5061C245.933 73.801 246.99 75.5349 249.531 74.5244C250.593 74.1547 252.028 72.7431 253.729 70.2801C255.447 67.8626 257.203 65.0099 259.013 61.7674C260.824 58.5249 262.389 55.5903 263.773 52.9907C264.874 50.8712 265.729 49.3224 266.266 48.4258C266.366 48.2809 266.448 48.0906 266.576 47.8823C267.313 46.4331 268.805 43.8428 268.436 46.8796C268.325 47.9221 268.151 48.9372 267.931 49.9705L265.52 63.3307C264.852 66.8021 264.022 69.0764 262.583 72.3286C260.461 77.1663 258.656 82.1407 257.15 87.2062C256.392 89.6619 255.852 92.3992 255.438 95.454C255.024 98.5088 254.982 101.31 255.313 103.859C255.878 106.734 257.736 107.046 259.455 104.629C260.547 102.618 261.67 98.7033 262.806 92.839C264.005 87.0021 265.004 81.455 265.849 76.1796C266.243 73.8682 266.555 72.0101 266.794 70.4963C267.298 67.9313 268.117 66.0288 269.536 63.7829C269.8 63.2576 269.702 62.6136 269.14 62.2589L269.014 62.2042C268.361 61.8856 268.226 61.6768 268.629 59.5196C269.023 57.2082 269.345 54.9783 269.622 52.7665C269.76 51.3976 269.962 50.0561 270.146 48.6692C270.165 48.4516 270.184 48.234 270.247 47.9984C270.587 45.8139 270.8 43.5747 270.832 41.4077C271.025 39.912 268.703 40.1522 267.904 40.7854ZM257.826 103.175C255.9 104.676 260.209 80.8924 261.713 81.24C262.357 81.4044 261.734 84.3319 261.469 85.6461C261.405 85.8817 261.368 86.054 261.359 86.1627C261.313 86.4437 261.212 87.1145 261.083 88.1116C260.512 92.49 259.206 102.153 257.826 103.175ZM90.1745 235.376C91.7805 234.79 92.2007 233.204 90.8154 232.231C90.3173 231.903 89.3475 231.711 87.924 231.699C87.1532 231.743 86.5628 232.24 86.6067 233.011C86.6046 234.063 54.5987 242.641 70.8177 211.545C72.1283 209.027 74.1933 205.631 76.9945 201.312C79.7957 196.992 83.0233 192.555 86.6319 188.02C90.2405 183.484 93.9836 179.684 97.7345 176.563C101.485 173.442 104.998 171.835 108.226 171.76C116.458 171.848 112.414 190.746 111.58 194.86C111.15 196.818 110.492 199.655 109.632 203.307C108.224 209.28 106.633 216.113 104.94 223.88C103.248 231.648 101.846 238.826 100.736 245.416C99.626 252.005 99.2361 256.574 99.6393 259.042C100.017 260.783 101.519 262.445 102.555 261.087C102.819 260.562 102.566 260.19 102.222 259.854C101.896 259.563 101.643 259.191 101.526 258.764C101.195 256.479 101.548 252.345 102.584 246.362C103.638 240.425 105.011 233.836 106.676 226.658C108.367 219.417 109.94 212.801 111.394 206.811C112.682 201.726 113.596 197.947 114.118 195.428C114.52 193.796 114.951 191.576 115.346 188.738C115.787 185.883 115.947 182.982 115.871 180.017C115.795 177.052 115.202 174.503 114.064 172.433C112.953 170.3 111.005 169.235 108.231 169.13C104.649 169.241 100.829 170.866 96.8601 173.968C92.8917 177.07 89.0304 180.97 85.2857 185.56C81.5864 190.132 78.2407 194.668 75.3395 199.132C72.4382 203.597 70.3094 207.228 68.8441 210.018C56.6931 233.505 67.712 241.524 90.1745 235.376ZM118.587 228.069C118.73 229.484 120.026 229.704 121.034 228.672C122.325 227.161 123.99 224.081 125.656 220.739C127.54 216.889 129.388 213.474 130.604 212.833C131.224 215.581 132.191 217.351 133.486 218.097C134.763 218.798 136.452 217.759 138.488 214.952C139.088 214.083 138.456 212.758 137.538 214.016C134.51 218.426 133.825 216.439 133.177 214.017C132.898 212.919 132.537 212.011 132.076 211.249C131.597 210.441 130.8 210.285 129.693 210.673C129.03 210.989 128.103 212.093 126.921 213.877C125.784 215.643 124.638 217.518 123.528 219.483C122.463 221.431 121.68 222.898 121.225 223.867C121.529 221.592 121.924 219.018 122.365 216.162C122.851 213.289 123.246 210.715 123.658 208.449C123.686 208.122 123.669 207.814 123.56 207.542L123.524 207.451L123.47 207.315C123.172 206.961 122.773 206.751 122.265 206.796C122.002 206.795 121.775 206.885 121.539 207.084L121.466 207.166C121.14 207.401 120.73 208.089 120.302 209.258C120.101 209.811 120.336 210.401 120.897 210.755C120.75 211.707 120.549 212.786 120.329 214.082C119.97 216.484 119.584 218.95 119.208 221.569C118.831 224.189 118.582 226.337 118.587 228.069ZM148.222 207.98C145.623 215.583 139.515 227.575 139.888 213.187C139.881 211.981 140.121 210.204 140.585 209.126C140.941 208.301 141.232 207.713 141.423 207.269C141.814 206.535 142.006 206.091 142.08 205.221C142.103 202.637 141.007 202.39 139.736 202.895C138.563 204.57 137.671 211.178 137.674 213.962C137.68 215.694 137.84 217.154 138.101 218.469C138.342 220.002 138.884 221.1 139.599 221.709C140.903 222.609 142.191 222.412 143.509 221.1C144.826 219.788 146.044 218.095 147.073 216.057C148.129 213.955 148.876 212.134 149.377 210.621C149.405 210.558 149.387 210.512 149.414 210.449C149.569 209.914 149.679 209.661 150.104 210.069C151.507 211.088 152.994 211.127 154.547 210.142C156.099 209.156 157.562 207.681 158.971 205.807C160.062 204.322 158.848 203.912 158.202 204.799C158.175 204.863 158.175 204.863 158.13 204.881C157.066 206.039 152.842 210.347 151.322 208.376C150.825 207.786 150.898 207.179 151.144 206.608C151.154 206.499 151.208 206.372 151.218 206.263C152.276 202.847 154.368 194.763 152.819 194.434C151.232 194.277 149.959 196.36 149.043 200.665C148.659 202.604 148.446 204.581 148.434 206.53C148.442 206.684 148.433 206.793 148.424 206.902C148.414 207.273 148.441 207.473 148.222 207.98ZM163.081 185.886C162.337 186.129 161.973 186.799 162.199 187.498C162.217 187.543 162.117 187.688 161.908 187.824C161.562 188.276 160.917 188.901 161.297 189.328C163.071 191.145 166.556 184.714 163.081 185.886ZM161.535 211.461C162.896 210.92 164.984 209.564 167.754 207.411C170.569 205.241 172.758 203.214 174.276 201.349C175.131 200.063 174.099 199.318 173.362 200.241C173.117 200.549 172.354 201.273 171.001 202.494C169.674 203.652 168.149 204.837 166.487 206.076C164.825 207.315 163.4 208.092 162.167 208.425C160.978 208.74 160.408 208.231 160.438 206.853C160.577 205.221 160.908 203.145 161.429 200.626C161.978 198.043 162.527 195.722 163.012 193.638C163.021 193.529 163.076 193.402 163.103 193.339C163.295 192.632 163.423 191.898 162.744 191.38C161.422 190.434 158.766 194.591 160.034 195.663C159.979 195.79 159.942 195.962 159.897 196.243C158.983 199.759 155.637 213.807 161.535 211.461ZM161.235 175.165C166.645 171.857 172.001 168.676 177.302 165.621C178.664 164.817 178.672 165.234 178.361 166.566C178.297 166.802 178.297 167.065 178.251 167.346C174.563 188.991 170.622 210.527 166.427 231.954C165.813 235.035 165.245 238.099 164.65 241.226C164.58 244.354 166.111 244.901 167.994 241.84C168.586 240.816 168.352 239.701 167.263 240.134C169.828 226.765 172.348 213.414 174.805 200.035C174.952 199.084 175.034 198.893 175.179 198.731C175.297 198.631 175.397 198.486 175.588 198.042C177.363 194.446 179.251 189.281 181.34 182.512C183.43 175.743 185.257 168.711 186.713 161.406C186.924 160.218 187.324 159.902 188.231 159.541C188.44 159.405 188.667 159.315 188.921 159.161C196.573 155.014 204.686 151.367 213.27 148.111C214.94 147.552 214.416 146.236 212.919 146.832C204.961 149.944 197.275 153.212 189.941 156.706C189.624 156.832 189.261 156.977 188.961 157.148L188.644 157.275C187.4 157.98 187.283 157.816 187.704 155.704C187.731 155.641 187.713 155.595 187.695 155.55C188.889 147.981 188.964 141.961 187.912 137.598C187.012 134.277 185.715 134.32 184.085 137.753C183.002 139.918 181.685 145.855 180.133 155.562C180.087 155.843 180.069 156.061 180.023 156.342C179.812 157.529 179.628 158.653 179.463 159.823C179.222 162.125 178.714 162.433 175.682 164.059C170.463 166.923 165.18 170.022 159.842 173.249C154.521 177.046 161.766 176.898 161.343 175.437L161.235 175.165ZM182.067 158.577C182.132 158.078 182.242 157.561 182.306 157.063C182.361 156.673 182.435 156.329 182.49 155.939C183.839 147.572 184.938 142.143 185.849 139.679C186.284 144.603 185.991 150.605 184.925 157.703C184.669 159.171 184.605 159.407 183.652 159.786L182.345 160.463C181.818 160.725 181.893 159.855 182.067 158.577ZM181.104 164.477C181.279 163.199 181.996 162.756 183.021 162.296C183.112 162.26 183.203 162.224 183.23 162.16L183.366 162.106C184.283 161.637 184.256 161.7 183.925 163.776C182.093 173.438 179.972 181.848 177.501 188.979C176.508 191.634 176.299 191.506 176.949 188.515C178.13 182.633 179.193 176.85 180.012 171.112C180.406 168.801 180.728 166.571 181.104 164.477ZM210.08 184.219C209.125 185.387 207.908 186.554 206.428 187.721C204.948 188.888 203.659 189.348 202.517 189.119C201.421 188.872 200.961 187.32 201.103 184.374C201.14 183.939 200.996 183.576 200.625 183.303C200.045 182.903 199.374 183.065 198.956 183.599C195.209 189.24 192.445 193.125 190.7 195.343C188.954 197.561 187.973 198.529 187.711 198.266C187.494 197.984 187.849 196.897 188.715 194.976C189.562 193.01 190.754 190.855 192.182 188.5C193.61 186.145 195.11 184.235 196.681 182.769C198.253 181.304 199.577 180.934 200.764 181.671C200.863 181.789 200.809 181.916 200.817 182.07C200.826 182.224 200.772 182.351 200.826 182.487C201.378 182.951 202.502 183.134 203.019 182.718C203.537 182.302 203.774 181.577 203.358 181.06C201.44 179.143 199.319 178.83 197.031 180.213C194.725 181.55 192.572 183.668 190.635 186.593C188.698 189.518 187.296 192.335 186.429 195.044C185.563 197.754 185.523 199.503 186.401 200.258C187.08 200.776 188.35 200.271 190.222 198.633C192.138 196.978 194.828 193.701 198.293 188.802C198.938 187.915 198.965 187.851 199.263 188.732L199.353 188.958C200.21 190.982 201.433 191.81 202.948 191.522C204.444 191.19 206.006 190.359 207.523 189.02C209.067 187.617 210.293 186.341 211.157 185.21C212.194 183.589 211.37 182.708 210.08 184.219ZM199.165 160.079C204.576 156.771 209.932 153.59 215.233 150.536C216.595 149.732 216.603 150.149 216.292 151.481C216.228 151.717 216.227 151.979 216.182 152.26C212.494 173.906 208.553 195.441 204.358 216.868C203.744 219.95 203.176 223.013 202.58 226.14C202.511 229.268 204.042 229.815 205.925 226.754C206.516 225.731 206.283 224.615 205.194 225.048C207.759 211.679 210.279 198.328 212.735 184.95C212.882 183.998 212.964 183.808 213.109 183.645C213.227 183.545 213.328 183.401 213.519 182.957C215.294 179.36 217.181 174.196 219.271 167.427C221.361 160.658 223.188 153.625 224.644 146.32C224.855 145.133 225.254 144.816 226.162 144.455C226.371 144.32 226.597 144.229 226.852 144.076C234.503 139.929 242.617 136.282 251.201 133.025C252.87 132.467 252.347 131.151 250.85 131.746C242.891 134.859 235.205 138.126 227.872 141.62C227.554 141.747 227.191 141.891 226.892 142.063L226.574 142.189C225.331 142.894 225.213 142.731 225.634 140.619C225.662 140.555 225.644 140.51 225.626 140.465C226.819 132.896 226.895 126.875 225.842 122.512C224.942 119.192 223.645 119.234 222.016 122.668C220.932 124.833 219.615 130.769 218.064 140.477C218.018 140.758 217.999 140.975 217.953 141.256C217.742 142.444 217.559 143.568 217.393 144.737C217.153 147.04 216.645 147.347 213.613 148.973C208.394 151.837 203.11 154.937 197.773 158.163C192.452 161.961 199.697 161.812 199.273 160.351L199.165 160.079ZM219.998 143.491C220.062 142.992 220.172 142.476 220.237 141.977C220.292 141.587 220.365 141.243 220.42 140.853C221.77 132.487 222.868 127.058 223.78 124.593C224.215 129.518 223.922 135.52 222.856 142.617C222.599 144.085 222.535 144.321 221.582 144.7L220.275 145.377C219.749 145.639 219.823 144.769 219.998 143.491ZM219.034 149.392C219.209 148.114 219.926 147.671 220.952 147.21C221.043 147.174 221.133 147.138 221.161 147.075L221.297 147.021C222.213 146.551 222.186 146.614 221.856 148.69C220.023 158.352 217.903 166.762 215.432 173.893C214.438 176.548 214.23 176.421 214.88 173.43C216.061 167.547 217.124 161.765 217.942 156.027C218.337 153.715 218.658 151.486 219.034 149.392ZM229.414 159.504C228.67 159.747 228.306 160.418 228.532 161.116C228.55 161.162 228.45 161.306 228.241 161.442C227.895 161.895 227.25 162.519 227.63 162.946C229.404 164.763 232.889 158.332 229.414 159.504ZM227.868 185.079C229.229 184.538 231.317 183.182 234.087 181.03C236.902 178.859 239.091 176.832 240.609 174.967C241.464 173.682 240.432 172.936 239.696 173.859C239.45 174.167 238.687 174.891 237.334 176.113C236.008 177.271 234.482 178.455 232.82 179.694C231.158 180.933 229.733 181.71 228.5 182.043C227.311 182.358 226.741 181.849 226.771 180.471C226.91 178.839 227.241 176.764 227.762 174.244C228.311 171.661 228.86 169.341 229.345 167.256C229.354 167.147 229.409 167.021 229.436 166.957C229.628 166.25 229.756 165.516 229.077 164.998C227.755 164.052 225.099 168.209 226.367 169.281C226.312 169.408 226.275 169.58 226.23 169.861C225.316 173.378 221.97 187.425 227.868 185.079ZM249.247 176.734C249.748 175.484 250.124 173.39 250.28 172.067C250.355 171.197 250.736 171.098 251.288 171.298C252.041 171.472 253.373 171.52 255.326 169.692C257.107 167.828 256.059 166.248 255.312 167.806C254.483 169.554 251.434 170.872 250.152 168.177C248.546 164.402 244.754 164.911 244.633 166.588C244.712 168.239 246.567 169.865 248.089 170.521C248.497 170.622 248.524 170.821 248.433 171.12C248.423 171.229 248.387 171.401 248.35 171.573C248.173 173.903 247.369 176.903 246.433 178.116C243.497 181.701 238.462 178.554 243.25 164.826C243.341 164.527 243.568 164.437 243.794 164.347C244.312 164.194 244.983 163.769 245.731 161.948C245.743 159.999 244.601 159.77 243.393 160.828C242.622 161.398 241.848 162.756 241.055 164.858C239.049 170.648 238.551 174.945 239.57 177.64C240.589 180.335 242.083 181.58 244.16 181.385C246.237 181.19 247.926 179.624 249.247 176.734ZM254.066 174.187C254.209 175.602 255.505 175.822 256.513 174.79C257.804 173.279 259.469 170.199 261.135 166.857C263.02 163.007 264.867 159.592 266.083 158.951C266.703 161.699 267.67 163.469 268.965 164.215C270.242 164.916 271.931 163.877 273.967 161.07C274.568 160.2 273.935 158.875 273.017 160.134C269.989 164.544 269.304 162.557 268.656 160.134C268.377 159.037 268.016 158.129 267.555 157.367C267.076 156.559 266.279 156.403 265.172 156.791C264.509 157.107 263.582 158.211 262.4 159.995C261.263 161.761 260.117 163.636 259.007 165.601C257.942 167.548 257.159 169.016 256.704 169.985C257.008 167.71 257.403 165.135 257.844 162.28C258.33 159.407 258.725 156.833 259.137 154.567C259.165 154.24 259.148 153.932 259.039 153.66L259.003 153.569L258.949 153.433C258.651 153.079 258.252 152.869 257.744 152.914C257.481 152.913 257.254 153.003 257.018 153.202L256.946 153.284C256.619 153.519 256.209 154.207 255.781 155.376C255.58 155.929 255.815 156.519 256.376 156.873C256.229 157.825 256.028 158.904 255.808 160.2C255.449 162.602 255.064 165.067 254.687 167.687C254.31 170.307 254.061 172.455 254.066 174.187ZM278.086 169.048C278.204 168.948 278.332 168.74 278.504 168.514C278.659 168.242 278.832 168.016 279.005 167.789C279.405 167.21 279.361 166.439 278.809 165.976C277.632 165.13 275.935 165.489 275.715 167.048C275.676 168.272 276.733 170.006 278.086 169.048Z" fill="#AFABAB"/>
</svg>
