<svg width="9" height="9" viewBox="0 0 9 9" fill="none" xmlns="http://www.w3.org/2000/svg">
<path d="M4.5 0.5625C2.32559 0.5625 0.5625 2.32559 0.5625 4.5C0.5625 6.67441 2.32559 8.4375 4.5 8.4375C6.67441 8.4375 8.4375 6.67441 8.4375 4.5C8.4375 2.32559 6.67441 0.5625 4.5 0.5625ZM6.05127 5.71025L5.7999 6.05303C5.79444 6.06049 5.78755 6.0668 5.77963 6.07159C5.77172 6.07639 5.76294 6.07957 5.75379 6.08096C5.74464 6.08235 5.73531 6.08191 5.72633 6.07968C5.71735 6.07746 5.7089 6.07347 5.70147 6.06797L4.24775 5.00801C4.2387 5.0015 4.23134 4.99292 4.22629 4.98298C4.22124 4.97304 4.21866 4.96203 4.21875 4.95088V2.53125C4.21875 2.49258 4.25039 2.46094 4.28906 2.46094H4.71182C4.75049 2.46094 4.78213 2.49258 4.78213 2.53125V4.70654L6.03545 5.6127C6.06709 5.63467 6.07412 5.67861 6.05127 5.71025Z" fill="black"/>
</svg>
