<svg width="7" height="9" viewBox="0 0 7 9" fill="none" xmlns="http://www.w3.org/2000/svg">
<path d="M3.5 0.10498C1.9809 0.10498 0.75 1.33093 0.75 2.84948C0.75 5.47518 3.5 8.89948 3.5 8.89948C3.5 8.89948 6.25 5.47463 6.25 2.84948C6.25 1.33148 5.0191 0.10498 3.5 0.10498ZM3.5 4.36803C3.10615 4.36803 2.72844 4.21158 2.44995 3.93308C2.17146 3.65459 2.015 3.27688 2.015 2.88303C2.015 2.48918 2.17146 2.11147 2.44995 1.83298C2.72844 1.55449 3.10615 1.39803 3.5 1.39803C3.89385 1.39803 4.27156 1.55449 4.55005 1.83298C4.82855 2.11147 4.985 2.48918 4.985 2.88303C4.985 3.27688 4.82855 3.65459 4.55005 3.93308C4.27156 4.21158 3.89385 4.36803 3.5 4.36803Z" fill="black"/>
</svg>
